<svg width="96" height="96" viewBox="0 0 480 480" fill="none" xmlns="http://www.w3.org/2000/svg">
<rect width="480" height="480" fill="#E5E5E5"/>
<rect x="5" y="5" width="470" height="470" stroke="#21284A" stroke-width="10"/>
<path d="M193.381 339V323.27H212.829V248.338H115.303V323.27H136.467V339H78.6949V323.27H97.2849V154.53H78.6949V138.8H136.467V154.53H115.303V231.178H212.829V154.53H193.381V138.8H248.293V154.53H230.847V323.27H251.153V339H193.381ZM272.607 154.53V138.8H332.095C355.547 138.8 372.898 142.804 384.147 150.812C395.587 158.82 401.307 173.978 401.307 196.286C401.307 218.403 395.397 234.801 383.575 245.478C371.945 255.965 354.785 261.208 332.095 261.208H310.073V323.27H330.379V339H272.607V323.27H290.625V154.53H272.607ZM330.665 154.53H310.073V245.478H330.665C347.825 245.478 360.6 241.76 368.989 234.324C377.569 226.697 381.859 214.399 381.859 197.43C381.859 180.27 377.665 168.83 369.275 163.11C360.886 157.39 348.016 154.53 330.665 154.53Z" fill="#21284A"/>
</svg>
